<svg viewBox="0 0 1228.222 1692.795" xml:space="preserve" xmlns="http://www.w3.org/2000/svg" enable-background="new 0 0 1228.222 1692.795"><path d="M1047.871 179.695C931.889 63.627 777.633-.295 613.511-.295 274.817-.295.074 275.35.074 614.168.074 835.015 114 1034.214 303 1143.537v371.077c0 98.286 77.169 178.181 174.001 178.181h274.21c96.247 0 175.789-79.895 175.789-178.181V1143.22c188-109.355 301.295-308.438 301.295-529.052 0-164.138-64.475-318.436-180.424-434.473zm-296.66 1380.1h-274.21c-23.56 0-42.001-20.186-42.001-45.181v-106.819h360v106.819c0 24.995-20.8 45.181-43.789 45.181zm79.746-515.106c-22.449 11.166-35.957 34.084-35.957 59.157v171.948H683v-423h160.174c36.49 0 66.071-29.51 66.071-66s-29.581-66-66.071-66H387.286c-36.49 0-66.07 29.51-66.07 66s29.58 66 66.07 66H550v423H435v-171.651c0-25.09-14.938-48.011-37.408-59.174C233.86 963.633 131.777 798.56 131.777 614.168c0-265.954 216.088-482.323 481.919-482.323 265.787 0 482.273 216.369 482.273 482.323.001 184.173-101.389 349.14-265.012 430.521z" fill="#b5cfb7" class="fill-000000"></path></svg>